Coordinates
version=1
nRows=13
nColumns=63
inDegrees=yes

Units are S.I. units (second, meters, Newtons, ...)
If the header above contains a line with 'inDegrees', this indicates whether rotational values are in degrees (yes) or radians (no).

endheader
time	pelvis_tilt	pelvis_list	pelvis_rotation	pelvis_tx	pelvis_ty	pelvis_tz	hip_flexion_r	hip_adduction_r	hip_rotation_r	knee_angle_r	knee_angle_r_beta	ankle_angle_r	subtalar_angle_r	mtp_angle_r	hip_flexion_l	hip_adduction_l	hip_rotation_l	knee_angle_l	knee_angle_l_beta	ankle_angle_l	subtalar_angle_l	mtp_angle_l	L5_S1_Flex_Ext	L5_S1_Lat_Bending	L5_S1_axial_rotation	L4_L5_Flex_Ext	L4_L5_Lat_Bending	L4_L5_axial_rotation	L3_L4_Flex_Ext	L3_L4_Lat_Bending	L3_L4_axial_rotation	L2_L3_Flex_Ext	L2_L3_Lat_Bending	L2_L3_axial_rotation	L1_L2_Flex_Ext	L1_L2_Lat_Bending	L1_L2_axial_rotation	L1_T12_Flex_Ext	L1_T12_Lat_Bending	L1_T12_axial_rotation	Abs_r3	Abs_r2	Abs_r1	Abs_t1	Abs_t2	neck_flexion	neck_bending	neck_rotation	arm_flex_r	arm_add_r	arm_rot_r	elbow_flex_r	pro_sup_r	wrist_flex_r	wrist_dev_r	arm_flex_l	arm_add_l	arm_rot_l	elbow_flex_l	pro_sup_l	wrist_flex_l	wrist_dev_l
11.282051	5.054829	-11.309079	114.068656	0.177635	0.355306	0.713236	1.348325	-1.002606	-20.629913	5.406395	0.094359	19.762546	7.581146	0.000000	5.116601	-4.454415	8.944951	8.394523	0.146512	30.697905	4.058979	0.000000	0.085765	0.744240	0.093307	0.159274	0.989840	0.099138	0.140903	1.809546	0.099138	0.098021	1.809546	0.081643	0.079641	1.517655	0.075812	0.049006	1.152828	0.069980	0.612609	8.418997	0.518943	0.000000	0.000000	14.747491	-2.642755	4.504813	-4.127604	-15.611312	21.142167	33.779333	73.346546	-10.893226	-0.600594	16.708225	-20.982977	23.009359	75.875139	87.906820	-0.021716	14.596671
11.307692	5.115257	-11.204375	114.038625	0.177827	0.355702	0.713318	1.292626	-0.878597	-20.233982	5.323265	0.092908	19.781422	7.480500	0.000000	5.077959	-4.593011	8.455761	8.496942	0.148300	30.814364	4.577454	0.000000	0.071354	0.747561	0.206914	0.132511	0.994256	0.219846	0.117227	1.817619	0.219846	0.081550	1.817619	0.181050	0.066259	1.524426	0.168118	0.040772	1.157972	0.155186	0.509673	8.456556	1.150795	0.000000	0.000000	14.028706	-3.097243	4.327740	-4.734537	-15.423290	18.986716	34.047528	75.495540	-10.989649	-0.089494	18.766546	-21.917511	26.040289	78.857871	88.018244	4.061504	14.194846
11.333333	5.165826	-11.159348	113.918724	0.178214	0.355967	0.713188	1.289596	-0.782244	-19.848450	5.242498	0.091499	19.840369	7.507750	0.000000	5.031068	-4.711944	7.965314	8.535963	0.148981	30.903932	4.984161	0.000000	0.061075	0.744076	0.297268	0.113422	0.989622	0.315847	0.100340	1.809148	0.315847	0.069803	1.809148	0.260109	0.056714	1.517321	0.241530	0.034898	1.152574	0.222951	0.436252	8.417142	1.653315	0.000000	0.000000	13.555916	-3.469922	4.242898	-4.952208	-15.259384	18.419678	34.016724	76.307011	-11.109088	0.189773	20.402300	-22.574500	28.938243	81.883622	88.027098	7.899950	14.095929
11.358974	5.210472	-11.181320	113.724326	0.178792	0.356109	0.712836	1.343670	-0.706291	-19.456257	5.164302	0.090134	19.896138	7.580027	0.000000	4.990460	-4.812636	7.475376	8.510380	0.148534	30.982745	5.312054	0.000000	0.055819	0.734080	0.360214	0.103661	0.976326	0.382727	0.091704	1.784842	0.382727	0.063795	1.784842	0.315187	0.051833	1.496936	0.292674	0.031895	1.137090	0.270161	0.398706	8.304058	2.003403	0.000000	0.000000	13.324585	-3.754273	4.305371	-4.829407	-15.111549	19.079545	33.740838	76.184883	-11.222687	0.336003	21.568074	-22.904500	31.653567	84.936552	87.978711	10.908109	14.412518
11.384615	5.249690	-11.257746	113.453154	0.179583	0.356159	0.712264	1.442168	-0.642446	-19.073169	5.090779	0.088851	19.920385	7.683626	0.000000	4.946297	-4.902954	6.957950	8.424477	0.147035	31.050153	5.599920	0.000000	0.054797	0.717784	0.398335	0.101764	0.954653	0.423231	0.090027	1.745220	0.423231	0.062628	1.745220	0.348543	0.050885	1.463705	0.323647	0.031311	1.111847	0.298751	0.391413	8.119715	2.215419	0.000000	0.000000	13.291779	-3.949598	4.511675	-4.369669	-15.001380	20.927569	33.262486	75.191271	-11.335948	0.372099	22.268372	-22.900624	34.082369	87.936992	87.933012	12.908930	15.073727
11.410256	5.288260	-11.382693	113.095827	0.180609	0.356125	0.711485	1.580211	-0.580357	-18.675776	5.016782	0.087559	19.889086	7.786026	0.000000	4.895325	-4.995332	6.328183	8.284563	0.144593	31.096656	5.929863	0.000000	0.058984	0.695784	0.423662	0.109539	0.925393	0.450141	0.096904	1.691730	0.450141	0.067412	1.691730	0.370704	0.054772	1.418843	0.344225	0.033703	1.077770	0.317747	0.421315	7.870852	2.356282	0.000000	0.000000	13.398038	-4.098420	4.762983	-3.709842	-14.920947	23.329074	32.693807	73.898285	-11.383929	0.444008	22.539220	-22.577338	36.150288	90.801406	87.945455	13.856916	15.998920
11.435897	5.318918	-11.541249	112.647427	0.181892	0.356052	0.710586	1.752062	-0.522177	-18.237846	4.950162	0.086397	19.793724	7.847539	0.000000	4.831310	-5.084812	5.629170	8.104004	0.141442	31.094819	6.233695	0.000000	0.066402	0.668065	0.443741	0.123315	0.888526	0.471474	0.109092	1.624332	0.471474	0.075891	1.624332	0.388273	0.061661	1.362317	0.360539	0.037942	1.034832	0.332806	0.474301	7.557280	2.467953	0.000000	0.000000	13.568427	-4.190886	5.018948	-2.872622	-14.866154	26.196642	32.086350	72.417028	-11.389711	0.574870	22.433655	-21.966875	37.779237	93.422048	88.075801	13.544789	16.962421
11.461538	5.347091	-11.724236	112.102666	0.183409	0.355961	0.709652	1.960836	-0.462228	-17.747540	4.897846	0.085484	19.631801	7.860122	0.000000	4.757701	-5.175705	4.873415	7.897318	0.137834	31.033208	6.484917	0.000000	0.076656	0.636867	0.463676	0.142359	0.847033	0.492655	0.125939	1.548478	0.492655	0.087611	1.548478	0.405716	0.071183	1.298699	0.376736	0.043801	0.986507	0.347757	0.547549	7.204364	2.578824	0.000000	0.000000	13.753953	-4.233800	5.285137	-1.910109	-14.833619	29.359091	31.522156	70.875582	-11.398418	0.775428	21.988678	-21.029776	38.750441	95.682904	88.398071	12.029476	17.850698
11.487179	5.383779	-11.920975	111.458473	0.185137	0.355866	0.708770	2.209331	-0.387164	-17.186480	4.863392	0.084882	19.414553	7.804495	0.000000	4.676649	-5.280007	4.055520	7.677744	0.134002	30.909410	6.683676	0.000000	0.088998	0.605021	0.494022	0.165279	0.804678	0.524898	0.146216	1.471048	0.524898	0.101716	1.471048	0.432269	0.082644	1.233759	0.401393	0.050854	0.937178	0.370516	0.635707	6.844120	2.747600	0.000000	0.000000	13.949421	-4.223640	5.549741	-0.949731	-14.797863	32.356978	31.107825	69.720534	-11.356474	1.111486	21.299252	-19.729687	38.913084	97.473027	88.712149	9.439798	18.649393
11.512821	5.443618	-12.111436	110.733228	0.187021	0.355786	0.708012	2.485223	-0.280906	-16.565714	4.848313	0.084619	19.138183	7.693829	0.000000	4.585245	-5.413617	3.193561	7.456671	0.130143	30.734106	6.818899	0.000000	0.101184	0.576178	0.539436	0.187908	0.766316	0.573151	0.166234	1.400918	0.573151	0.115643	1.400918	0.472007	0.093959	1.174941	0.438292	0.057816	0.892499	0.404577	0.722744	6.517836	3.000183	0.000000	0.000000	14.149398	-4.106854	5.857635	-0.035084	-14.807454	35.188282	30.923454	68.873508	-11.391354	1.500266	20.457516	-18.077117	38.180301	98.727854	88.661323	6.071755	19.380197
11.538462	5.507219	-12.300979	109.976617	0.189066	0.355735	0.707389	2.780281	-0.157655	-15.979295	4.844810	0.084558	18.818936	7.551945	0.000000	4.499801	-5.556677	2.349945	7.242845	0.126411	30.490262	6.892949	0.000000	0.114817	0.546780	0.596291	0.213226	0.727218	0.633559	0.188632	1.329442	0.633559	0.131224	1.329442	0.521754	0.106619	1.114994	0.484486	0.065606	0.846963	0.447218	0.820124	6.185289	3.316391	0.000000	0.000000	14.339189	-3.896176	6.066377	0.884251	-14.845860	37.979122	30.871128	68.290958	-11.449733	1.881727	19.560909	-16.231322	36.636372	99.434780	88.453085	2.087058	20.133616
11.564103	5.589876	-12.477006	109.204573	0.191172	0.355721	0.706859	3.074952	0.000441	-15.361867	4.843786	0.084540	18.435332	7.351498	0.000000	4.413079	-5.719290	1.577167	7.033755	0.122762	30.212559	6.852010	0.000000	0.128561	0.521281	0.663390	0.238751	0.693304	0.704852	0.211213	1.267443	0.704852	0.146933	1.267443	0.580467	0.119382	1.062997	0.539005	0.073460	0.807465	0.497543	0.918300	5.896837	3.689579	0.000000	0.000000	14.470010	-3.623029	6.215545	1.726857	-14.922742	40.438844	31.011646	68.123420	-11.498576	2.272377	18.598883	-14.257792	34.212446	99.628527	87.807913	-1.923832	20.828554
11.589744	5.695276	-12.639425	108.432668	0.193262	0.355753	0.706390	3.365201	0.190690	-14.736910	4.846463	0.084587	17.981979	7.159425	0.000000	4.332006	-5.899784	0.887226	6.825319	0.119124	29.946846	6.709607	0.000000	0.141240	0.502429	0.726992	0.262296	0.668230	0.772429	0.232043	1.221605	0.772429	0.161423	1.221605	0.636118	0.131155	1.024552	0.590681	0.080704	0.778262	0.545244	1.008861	5.683573	4.043309	0.000000	0.000000	14.519238	-3.317609	6.442038	2.511967	-15.058452	42.636477	31.336485	68.266772	-11.638902	2.648979	17.571346	-12.339933	31.068427	99.468091	86.781785	-6.115919	21.395113
